# xmcd CD database file
#
# Track frame offsets:
#	150
#	17200
#	37572
#	55997
#	74825
#	100610
#	116587
#	134762
#	151210
#	165127
#	180627
#	195012
#	215267
#	230047
#	249507
#
# Disc length: 3600 seconds
#
# Revision: 3
# Processed by: cddbd v1.5.1PL0 Copyright (c) Steve Scherf et al.
# Submitted via: CDex 1.51
#
DISCID=c00e0e0f
DTITLE=Starch Addition - FFM
DYEAR=2003
DGENRE=Jazz+Funk
TTITLE0=Move
TTITLE1=Wake Up
TTITLE2=Hot
TTITLE3=Nothing To Hide
TTITLE4=2000 Miles
TTITLE5=Partyqueen
TTITLE6=Take Up The Power
TTITLE7=Sol, Mar Y Chiquitas
TTITLE8=If You Wanna Do It
TTITLE9=Tomorrow
TTITLE10=What You Want!
TTITLE11=Got To Be Funky
TTITLE12=Don't Get It
TTITLE13=Refresh Your Mind
TTITLE14=Everything
EXTD=YEAR: 2003
EXTT0=
EXTT1=
EXTT2=
EXTT3=
EXTT4=
EXTT5=
EXTT6=
EXTT7=
EXTT8=
EXTT9=
EXTT10=
EXTT11=
EXTT12=
EXTT13=
EXTT14=
PLAYORDER=
